<svg width="52" height="54" viewBox="0 0 52 54" fill="none" xmlns="http://www.w3.org/2000/svg">
<path id="Vector" d="M12.2385 24.754C14.3051 24.754 16.1692 23.4698 17.4461 21.6444C19.4365 18.7928 21.9351 16.4392 24.782 14.7341C26.6359 13.6285 28.2436 11.9815 29.0205 9.79618C29.5662 8.26513 29.8464 6.63114 29.8461 4.98203V3.15946C29.8461 2.58673 30.0487 2.03747 30.4094 1.63249C30.77 1.22751 31.2592 1 31.7692 1C33.2993 1 34.7667 1.68254 35.8487 2.89747C36.9306 4.1124 37.5384 5.7602 37.5384 7.47837C37.5384 10.7953 36.8718 13.9366 35.6846 16.7439C35.0025 18.3505 35.959 20.4351 37.5436 20.4351H45.5589C48.1897 20.4351 50.5461 22.4333 50.8256 25.373C50.941 26.5881 51 27.8204 51 29.0729C51.0106 36.9516 48.6129 44.5957 44.2077 50.7279C43.2128 52.1157 41.6769 52.8269 40.0923 52.8269H29.7949C28.5549 52.8263 27.3231 52.6027 26.1461 52.1647L18.1615 49.1702C16.9849 48.7308 15.7528 48.5072 14.5128 48.508H10.3692M10.3692 48.508C10.5821 49.0983 10.8128 49.6741 11.0615 50.2413C11.5667 51.393 10.8615 52.8269 9.72051 52.8269H7.39231C5.11283 52.8269 3.00001 51.3355 2.33591 48.8881C1.44781 45.615 0.997602 42.212 1.00001 38.7905C1.00001 34.319 1.75642 30.049 3.13078 26.1274C3.91539 23.8989 5.91539 22.5946 8.05129 22.5946H10.7513C11.9615 22.5946 12.6615 24.1954 12.0333 25.3587C9.84331 29.4068 8.68827 34.0539 8.69487 38.7905C8.69068 42.1208 9.26011 45.4205 10.3718 48.508H10.3692ZM31.7692 20.4351H37.5384" stroke="#0F0E0E" stroke-width="1.5" stroke-linecap="round" stroke-linejoin="round"/>
</svg>
